<?xml version="1.0" encoding="utf-8"?>
<!-- Generator: Adobe Illustrator 21.0.0, SVG Export Plug-In . SVG Version: 6.00 Build 0)  -->
<svg version="1.1" id="Layer_1" xmlns="http://www.w3.org/2000/svg" xmlns:xlink="http://www.w3.org/1999/xlink" x="0px" y="0px"
	 viewBox="0 0 546.3 98.3" style="enable-background:new 0 0 546.3 98.3;" xml:space="preserve">
<style type="text/css">
	.st0{fill:#808285;}
	.st1{fill:#0065A1;}
</style>
<title>LogoBC</title>
<path class="st0" d="M200.7,1.2h-7.6v46.7c4.5,1.8,9.2,2.7,14,2.8c7.2-0.1,13.4-3.2,14.1-12V26c0-7.8-6.9-12.2-13.9-12.3
	c-2.3,0-4.6,0.5-6.7,1.4L200.7,1.2L200.7,1.2z M200.7,21.6c1.6-1,3.5-1.5,5.4-1.4c3.6,0,7.3,1.7,7.6,5.5v13.1
	c-0.2,4.1-4.1,5.6-7.8,5.6c-1.8,0-3.6-0.3-5.2-1V21.6z M241.6,13.7c-2.4,0.1-4.8,0.6-7.1,1.5c-4.1,2-6.6,6.2-6.6,10.7V50h7.6V26
	c0-4.8,6.3-6.5,10.2-5.3v-6.7C244.3,13.8,242.9,13.6,241.6,13.7z M249.4,5.4c0,2.6,2.1,4.8,4.7,4.8c2.6,0,4.8-2.1,4.8-4.7
	c0,0,0,0,0-0.1c0-2.6-2.1-4.8-4.7-4.8C251.6,0.6,249.4,2.7,249.4,5.4C249.4,5.4,249.4,5.4,249.4,5.4z M250.5,14.3V50h7.6V14.3
	L250.5,14.3z M293.1,1.2h-7.6v13.9c-2-1-4.3-1.5-6.5-1.4c-7,0-14,4.4-14,12.3v12.7c0.7,8.9,7.1,11.9,14.3,12c4.7,0,9.4-1,13.8-2.8
	L293.1,1.2L293.1,1.2z M285.6,43.4c-1.6,0.7-3.4,1-5.2,1c-3.8,0-7.6-1.5-7.8-5.6V25.6c0.3-3.8,3.9-5.5,7.6-5.5
	c1.9,0,3.8,0.5,5.4,1.4V43.4L285.6,43.4z M300.4,57.4c2.8,4.3,8.3,6.3,13.5,6.3c7.1,0,13.9-4.1,13.9-13.1V17.6
	c-3.8-2.6-8.2-3.9-12.8-3.9c-7.7,0.1-15,3.9-15,12.5v12.1c0,8,6.9,12.4,14,12.4c2.2,0,4.5-0.4,6.5-1.3c0,5.8-3.1,7.9-6.7,7.9
	c-3.5,0-6.8-1.5-8.9-4.2L300.4,57.4L300.4,57.4z M320.3,42.3c-1.7,1.1-3.7,1.6-5.7,1.6c-3.5,0-6.8-1.9-7-5.6V26.2
	c0-3.8,3.5-5.6,7.1-5.6c2-0.1,3.9,0.4,5.6,1.4V42.3L320.3,42.3z M355.2,39.7c-1.3,2.7-4,3.6-6.6,3.6c-3.2,0-6.3-1.9-6.3-5.2v-2.5
	h20.4v-9.8c0-8.3-7.1-12.2-13.9-12.2c-7,0-14.1,3.9-14.1,12.2v12.5c0,8.2,7.1,12.2,14.1,12.2c5.3,0,10.1-2.8,12.8-7.3L355.2,39.7
	L355.2,39.7z M355.4,29.4h-13.1v-3.2c-0.1-3.5,3.2-5.2,6.5-5.2c3.3,0,6.5,1.7,6.5,5V29.4L355.4,29.4z M394.4,19.8
	c-2.3-4.1-7.2-6.1-12.2-6.1c-6.7,0-13.5,3.8-13.5,11.6v13.9c0,7.8,6.8,11.6,13.5,11.6c5.5,0,11-2.5,12.9-7.6l-3.5-1.6
	c-1.1,3.8-5.2,5.5-9.3,5.5c-4.8,0-9.6-2.3-9.6-7.6V24.9c0-5.3,4.8-7.6,9.6-7.6c3.7,0,7.4,1.4,8.9,4.3L394.4,19.8z M422.5,30.4
	c-3-1.2-6.2-1.9-9.5-1.9c-6.8,0-13.6,3.1-13.7,11.1c0,7.4,5.5,10.9,12.4,11c5,0.1,9.9-0.7,14.6-2.3V25c0-7.5-6.5-11.3-13.3-11.3
	c-4.5,0-9.1,1.7-12,4.8l2.6,2.5c1.9-2.3,5.4-3.6,9-3.6c5,0,9.8,2.5,9.8,7.6V30.4z M422.5,46.2c-3.4,0.8-7,1.1-10.5,1
	c-5-0.1-8.8-2.1-8.8-7.6c0.1-6,4.7-7.8,10-7.8c3.2,0,6.4,0.6,9.4,1.7V46.2L422.5,46.2z M435.2,63.1h3.8V48.5c3,1.4,6.3,2.2,9.7,2.2
	c6.8,0,13.5-4.1,13.5-11.6V25.2c0-7.7-6.7-11.4-13.3-11.5c-4.7,0-9.3,0.9-13.8,2.4V63.1L435.2,63.1z M439.1,18.5
	c3.2-0.9,6.6-1.3,9.9-1.2c4.7,0,9.4,2.4,9.4,7.5v14.5c0,5.1-4.7,7.6-9.6,7.6c-3.4,0-6.7-0.7-9.8-2V18.5z M469.4,5.6
	c0,1.7,1.4,3.1,3.1,3.1c1.7,0,3.1-1.4,3.1-3.1c0-1.7-1.4-3.1-3.1-3.1c0,0,0,0,0,0C470.8,2.5,469.4,3.9,469.4,5.6
	C469.4,5.6,469.4,5.6,469.4,5.6z M470.6,14.3V50h3.8V14.3L470.6,14.3z M496.2,47.1c-6.7,1.1-8.8-3-8.8-7.9V17.8h7.7v-3.4h-7.7
	l-0.5-8.1h-3.4v32.9c0,7.7,4.1,12.7,12.7,11.3L496.2,47.1L496.2,47.1z M522.8,30.4c-3-1.2-6.2-1.9-9.5-1.9
	c-6.8,0-13.6,3.1-13.7,11.1c0,7.4,5.5,10.9,12.4,11c5,0.1,9.9-0.7,14.6-2.3V25c0-7.5-6.5-11.3-13.3-11.3c-4.5,0-9.1,1.7-12,4.8
	l2.6,2.5c1.9-2.3,5.4-3.6,9-3.6c4.9,0,9.8,2.5,9.8,7.6V30.4L522.8,30.4z M522.8,46.2c-3.4,0.8-7,1.1-10.5,1c-5-0.1-8.8-2.1-8.8-7.6
	c0.1-6,4.7-7.8,10-7.8c3.2,0,6.4,0.6,9.4,1.7V46.2L522.8,46.2z M546.3,46.8c-4.8,0-7-2.7-7-7.4V1.3h-3.9v38.1
	c0,7.1,3.9,11.3,10.9,11.3V46.8z"/>
<path class="st1" d="M45,38.8v-17h14c12.2,0,11.7,17,0,17L45,38.8z M90.1,30.5C90.6,12.3,77.2,1.4,59,1.4H20.6v54.8
	C12.8,61.6,5.9,68.1,0,75.5c22.1-17,54.1-27.7,89.6-27.7c35.5,0,67.4,10.7,89.6,27.7c-13.7-17.7-35.4-30.9-60.9-36.7v-6.1
	c0-11.9,21.3-14.6,27.8-2.7l19.7-8C158,5,143.9,0,132.1,0C112.9,0,94,11.1,94,32.7v3c-1.5-0.1-3-0.1-4.5-0.1l-0.6,0
	C89.6,34,90,32.3,90.1,30.5L90.1,30.5z"/>
<path class="st1" d="M145.1,67.1c-5.3,13.2-26.9,10-26.9-1.5v-8.8c-8-1.3-16.1-2.1-24.2-2.3v11.1c0,21.7,18.9,32.7,37.7,32.7
	c14.6,0,28-8.3,34.4-21.5L145.1,67.1L145.1,67.1z M20.6,69.5c7.8-3.8,15.9-6.8,24.3-9.1v15.4h14c13.3,0,14.2-16.3,3.4-19.2
	c9-1.4,18.1-2.1,27.2-2.1l0.4,0c3.4,5.3,4.7,11.6,3.7,17.8C91.3,87.6,80.9,97,59.7,97h-39V69.5z"/>
<g>
	<path class="st0" d="M197.8,76c1.4-0.6,2.9-0.9,4.4-0.9c4.2,0,8.3,2.5,8.3,7.8v15h-4.7v-15c0-3.9-5.5-4.1-8.1-2.5v17.5h-4.7V67.3
		h4.7V76z"/>
	<path class="st0" d="M214.8,82.8c0-5.1,4.4-7.7,8.8-7.7c4.3,0,8.8,2.6,8.8,7.7v7.8c0,5.2-4.4,7.7-8.8,7.7c-4.4,0-8.8-2.5-8.8-7.7
		V82.8z M219.6,82.8v7.5c0,2.1,2.1,3.3,4.1,3.3c1.9,0,4-1.2,4-3.3v-7.5c0-2.1-2.2-3.1-4-3.1C221.7,79.7,219.6,80.7,219.6,82.8z"/>
	<path class="st0" d="M236.8,77.5c1.9-1.4,4.9-2.3,7.6-2.4c2.7,0,5.2,0.7,6.5,3c1.3-1.9,3.7-2.9,6.1-3c4.1,0,8.3,2.4,8.3,7.4v15.4
		h-4.7V82.6c0-2-1.7-2.9-3.6-2.9c-1.9,0-3.8,1-3.8,2.8v15.4h-4.7V82.6c0-2-1.9-2.8-3.9-2.8c-1.1,0-2.3,0.3-3.2,0.9v17.3h-4.7V77.5z"
		/>
	<path class="st0" d="M286.4,93.7c-1.7,3.1-5.1,4.6-8,4.6c-4.4,0-8.8-2.5-8.8-7.7v-7.9c0-5.2,4.4-7.7,8.8-7.7c4.3,0,8.7,2.5,8.7,7.7
		v6.1h-12.8v1.6c0,2,1.9,3.2,4,3.2c1.6,0,3.3-0.6,4.1-2.2L286.4,93.7z M282.5,82.9c0-2.1-2-3.1-4.1-3.1c-2.1,0-4.2,1-4.1,3.2v2h8.2
		V82.9z"/>
	<path class="st0" d="M306.9,98.3c-4.4,0-6.8-2.6-6.8-7.1V67.3h2.4v23.9c0,3,1.4,4.7,4.4,4.7V98.3z"/>
	<path class="st0" d="M309.4,82.4c0-4.9,4.3-7.2,8.5-7.3c4.2,0,8.5,2.4,8.5,7.3V91c0,4.9-4.2,7.2-8.5,7.3c-4.2,0-8.5-2.4-8.5-7.3
		V82.4z M311.8,82.3v8.8c0,3.4,3.1,4.9,6.1,4.9c2.9,0,6-1.5,6-4.9v-8.8c0-3.4-3.1-4.8-6-4.8C314.9,77.4,311.8,78.9,311.8,82.3z"/>
	<path class="st0" d="M344.6,82.2c0-3.2-3.1-4.8-6.2-4.8c-2.2,0-4.5,0.8-5.7,2.2l-1.6-1.6c1.8-2,4.7-3,7.5-3c4.3,0,8.3,2.4,8.3,7.1
		v14.7c-2.9,1-6,1.5-9.1,1.4c-4.4,0-7.8-2.2-7.8-6.9c0-5,4.3-7,8.6-7c2.1,0,4.2,0.4,6,1.2V82.2z M344.6,87.6
		c-1.5-0.6-3.7-1.1-5.9-1.1c-3.3,0-6.2,1.2-6.3,4.9c0,3.4,2.4,4.7,5.5,4.7c2.2,0,4.5-0.1,6.6-0.6V87.6z"/>
	<path class="st0" d="M352.6,76.9c2.8-0.9,5.7-1.8,8.6-1.8c4.1,0.1,8.3,2.4,8.3,7.2v15.6H367V82.2c0-3.3-3-4.8-5.9-4.8
		c-2.4,0-4.8,0.7-6.2,1.3v19.2h-2.4V76.9z"/>
	<path class="st0" d="M375.6,92.5c1.7,2.3,4.2,3.5,6.8,3.5c2.5,0,5-1,5-4.1c0-3-2.8-3.8-5.1-4.2c-3.6-0.6-7.8-1.7-7.8-6.3
		c0-4.5,4.4-6.3,7.9-6.3c2.3,0,4.7,0.7,6.3,2.2l-1.6,1.8c-1.3-1.3-2.9-1.7-4.7-1.7c-2.3,0-5.6,0.9-5.6,4c0,3,3.6,3.6,5.8,4
		c3.5,0.6,7.1,2.1,7.1,6.5c0,4.4-3.6,6.3-7.4,6.4c-3.5,0.1-6.7-1.5-8.6-4.6L375.6,92.5z"/>
</g>
</svg>
