<svg id="Layer_1" data-name="Layer 1" xmlns="http://www.w3.org/2000/svg" viewBox="0 0 125 318"><defs><style>.cls-1{fill:#aaa;}.cls-2{fill:#0066a2;}</style></defs><title>ProcessBig</title><path class="cls-1" d="M95.29492,0H29.70557A29.739,29.739,0,0,0,0,29.70557V90.98193A29.739,29.739,0,0,0,29.70557,120.6875h26.0882A7.00968,7.00968,0,0,0,60.5,125.3938V318h4V125.3938a7.00985,7.00985,0,0,0,4.70636-4.7063H95.29492A29.73856,29.73856,0,0,0,125,90.98193V29.70557A29.73856,29.73856,0,0,0,95.29492,0ZM121,90.98193A25.73429,25.73429,0,0,1,95.29492,116.6875H69.20636a6.99744,6.99744,0,0,0-13.4126,0H29.70557A25.7344,25.7344,0,0,1,4,90.98193V29.70557A25.7344,25.7344,0,0,1,29.70557,4H95.29492A25.73429,25.73429,0,0,1,121,29.70557Z"/><path class="cls-2" d="M34.62444,62.53717H50.09753a10.37436,10.37436,0,0,0,20.49731-2.11646l6.78458,3.91708,6.78687,3.9184v-5.569h6.21051A11.281,11.281,0,0,0,101.645,51.41895V42.4184A11.28114,11.28114,0,0,0,90.37679,31.14993H43.86034a10.377,10.377,0,1,0,0,4.53583H90.37679a6.7405,6.7405,0,0,1,6.73282,6.73264v9.00055a6.7405,6.7405,0,0,1-6.73282,6.73264H84.16628V52.58264L77.37942,56.501,70.5949,60.418c.0007-.04965.00375-.09875.00375-.14859a10.37586,10.37586,0,0,0-20.50113-2.26791H34.62444A11.28132,11.28132,0,0,0,23.356,69.27v9.00055A11.28114,11.28114,0,0,0,34.62444,89.53879h34.3851v5.56894l6.78687-3.9183,5.10071-2.94489a10.37714,10.37714,0,1,0,0-1.947l-5.10071-2.94489-6.78687-3.9184v5.56912H34.62444a6.7405,6.7405,0,0,1-6.73264-6.73282V69.27A6.7405,6.7405,0,0,1,34.62444,62.53717ZM33.733,39.259a5.84126,5.84126,0,1,1,5.84116-5.84137v.00021A5.84772,5.84772,0,0,1,33.733,39.259ZM60.222,54.4281a5.84137,5.84137,0,1,1-5.84137,5.84137h0A5.848,5.848,0,0,1,60.222,54.4281ZM91.22683,81.42932a5.84155,5.84155,0,1,1-5.84137,5.84177A5.84156,5.84156,0,0,1,91.22683,81.42932Z"/></svg>