<svg id="Layer_1" data-name="Layer 1" xmlns="http://www.w3.org/2000/svg" viewBox="0 0 78.28906 74.6072"><defs><style>.cls-1{fill:#0066a2;}</style></defs><title>Process</title><path class="cls-1" d="M277.97939,398.44632h15.47307a10.37436,10.37436,0,0,0,20.49732-2.11644l6.78459,3.91708,6.78688,3.9184v-5.569h6.2105A11.281,11.281,0,0,0,345,387.32808v-9.00054a11.28115,11.28115,0,0,0-11.26825-11.26845H287.21529a10.377,10.377,0,1,0,0,4.53582h46.51646a6.74049,6.74049,0,0,1,6.73283,6.73263v9.00054a6.74049,6.74049,0,0,1-6.73283,6.73263h-6.2105v-5.56894l-6.78688,3.9184-6.78451,3.917c.00071-.04966.00376-.09876.00376-.14859a10.37586,10.37586,0,0,0-20.50113-2.26791H277.97939a11.28132,11.28132,0,0,0-11.26845,11.26845v9.00054a11.28115,11.28115,0,0,0,11.26845,11.26825H312.3645v5.56894l6.78688-3.9183,5.10072-2.94488a10.37715,10.37715,0,1,0,0-1.947l-5.10072-2.9449-6.78688-3.9184v5.56913H277.97939a6.74049,6.74049,0,0,1-6.73263-6.73282v-9.00054A6.74049,6.74049,0,0,1,277.97939,398.44632Zm-.89146-23.27815a5.84127,5.84127,0,1,1,5.84117-5.84117A5.8477,5.8477,0,0,1,277.08793,375.16817ZM303.577,390.33724a5.84137,5.84137,0,1,1-5.84137,5.84137A5.848,5.848,0,0,1,303.577,390.33724Zm31.00479,27.00123a5.84156,5.84156,0,1,1-5.84137,5.84176A5.84837,5.84837,0,0,1,334.5818,417.33847Z" transform="translate(-266.71094 -358.94982)"/></svg>